name D:\school\WTK\thesis\model\3dpredictsim\Results\MidTarsalJoint\Fal_s1_bCst_PF_Natali2010_ls150_MT_k400_MTP_T5_d00_ig24.mot
datacolumns 128
datarows 4
range 0.00000000 0.03441991
endheader
time	pelvis_tilt	pelvis_list	pelvis_rotation	pelvis_tx	pelvis_ty	pelvis_tz	hip_flexion_l	hip_adduction_l	hip_rotation_l	hip_flexion_r	hip_adduction_r	hip_rotation_r	knee_angle_l	knee_angle_r	ankle_angle_l	ankle_angle_r	subtalar_angle_l	subtalar_angle_r	mtj_angle_l	mtj_angle_r	mtp_angle_l	mtp_angle_r	lumbar_extension	lumbar_bending	lumbar_rotation	arm_flex_l	arm_add_l	arm_rot_l	arm_flex_r	arm_add_r	arm_rot_r	elbow_flex_l	elbow_flex_r	pro_sup_l	pro_sup_r	glut_med1_l/activation	glut_med2_l/activation	glut_med3_l/activation	glut_min1_l/activation	glut_min2_l/activation	glut_min3_l/activation	semimem_l/activation	semiten_l/activation	bifemlh_l/activation	bifemsh_l/activation	sar_l/activation	add_long_l/activation	add_brev_l/activation	add_mag1_l/activation	add_mag2_l/activation	add_mag3_l/activation	tfl_l/activation	pect_l/activation	grac_l/activation	glut_max1_l/activation	glut_max2_l/activation	glut_max3_l/activation	iliacus_l/activation	psoas_l/activation	quad_fem_l/activation	gem_l/activation	peri_l/activation	rect_fem_l/activation	vas_med_l/activation	vas_int_l/activation	vas_lat_l/activation	med_gas_l/activation	lat_gas_l/activation	soleus_l/activation	tib_post_l/activation	flex_dig_l/activation	flex_hal_l/activation	tib_ant_l/activation	per_brev_l/activation	per_long_l/activation	per_tert_l/activation	ext_dig_l/activation	ext_hal_l/activation	ercspn_l/activation	intobl_l/activation	extobl_l/activation	glut_med1_r/activation	glut_med2_r/activation	glut_med3_r/activation	glut_min1_r/activation	glut_min2_r/activation	glut_min3_r/activation	semimem_r/activation	semiten_r/activation	bifemlh_r/activation	bifemsh_r/activation	sar_r/activation	add_long_r/activation	add_brev_r/activation	add_mag1_r/activation	add_mag2_r/activation	add_mag3_r/activation	tfl_r/activation	pect_r/activation	grac_r/activation	glut_max1_r/activation	glut_max2_r/activation	glut_max3_r/activation	iliacus_r/activation	psoas_r/activation	quad_fem_r/activation	gem_r/activation	peri_r/activation	rect_fem_r/activation	vas_med_r/activation	vas_int_r/activation	vas_lat_r/activation	med_gas_r/activation	lat_gas_r/activation	soleus_r/activation	tib_post_r/activation	flex_dig_r/activation	flex_hal_r/activation	tib_ant_r/activation	per_brev_r/activation	per_long_r/activation	per_tert_r/activation	ext_dig_r/activation	ext_hal_r/activation	ercspn_r/activation	intobl_r/activation	extobl_r/activation	
          0.00000000	         -2.92989238	         -2.12428812	          6.08021550	          0.00000000	          0.91594479	         -0.00430121	        -17.36164806	         -0.93073914	          5.86834533	         29.08307763	          3.02291990	         -4.17443807	         -6.89290412	         -9.11870998	         -0.29423293	          6.52728259	          4.45294604	         -8.20184008	          3.21682139	         -0.16498919	         16.55448747	          0.60514090	         -1.83414841	          0.15557452	         -2.24875789	          6.18432267	        -13.45075447	         16.66886901	         -6.89265925	        -13.55977269	          7.29638438	         35.20780784	         16.27849699	         86.51662706	         86.51662706	          0.21153602	          0.08527941	          0.07095159	          0.23959220	          0.16098824	          0.10074568	          0.05002383	          0.05000078	          0.05000058	          0.05000025	          0.10070921	          0.09184220	          0.05000089	          0.05008086	          0.05009293	          0.07093401	          0.27947838	          0.05000144	          0.05000204	          0.05000714	          0.05000516	          0.05003030	          0.44426098	          0.61142546	          0.05000054	          0.05230716	          0.06021047	          0.32962470	          0.07265863	          0.13062486	          0.11154982	          0.26486925	          0.35101866	          0.29637229	          0.28264641	          0.23417046	          0.30555793	          0.05000003	          0.05000010	          0.09727963	          0.05000011	          0.05000003	          0.05000017	          0.05000002	          0.07452217	          0.06063870	          0.05000001	          0.05000005	          0.08239410	          0.05000005	          0.05000006	          0.05000009	          0.23618280	          0.08071764	          0.14852659	          0.08339017	          0.05018444	          0.10958583	          0.21267742	          0.25778046	          0.16463952	          0.09706153	          0.05000028	          0.05117843	          0.10813348	          0.05047638	          0.05956168	          0.13696437	          0.07095048	          0.07103631	          0.54600920	          0.11991228	          0.06396454	          0.08451754	          0.07831047	          0.08578680	          0.07098440	          0.06574091	          0.07095026	          0.05956205	          0.05956112	          0.05142054	          0.05956157	          0.43677808	          0.20969351	          0.23691401	          0.17621409	          0.40252991	          0.12885629	          0.05231218	          0.11867992	          0.10067961	
          0.01147330	         -2.92989906	         -2.22565987	          6.44592014	          0.01741946	          0.91501766	         -0.00415061	        -17.49129703	         -1.29393405	          5.62582108	         28.50974786	          3.25720838	         -3.89049923	         -8.37668574	         -9.97257263	         -0.84474796	          5.92447365	          5.26137796	         -8.50639964	          2.46488728	         -0.28173159	         18.30255755	          0.60007422	         -1.60945043	          0.34093129	         -2.31481181	          5.93085586	        -13.45012906	         16.97828627	         -7.91498948	        -13.54995296	          7.31902910	         36.51811433	         15.94076135	         86.51662706	         86.51662706	          0.26706452	          0.07158988	          0.05956205	          0.23219025	          0.13514553	          0.08457342	          0.05000079	          0.05000023	          0.05000016	          0.05000014	          0.08454289	          0.07709927	          0.05000193	          0.05000056	          0.05000139	          0.05954790	          0.23461506	          0.05000187	          0.05000034	          0.05000136	          0.05000093	          0.05000080	          0.37294573	          0.61517916	          0.05000007	          0.05000020	          0.05054516	          0.27671150	          0.13098936	          0.10966095	          0.09364749	          0.22235093	          0.29467114	          0.24879691	          0.23820753	          0.19658016	          0.25650812	          0.05000000	          0.06208956	          0.12636017	          0.05000005	          0.05000000	          0.05000005	          0.05000000	          0.06255945	          0.05090469	          0.21275726	          0.05000047	          0.26437275	          0.26131719	          0.16174447	          0.25664502	          0.19826942	          0.07017868	          0.12468429	          0.08440011	          0.05000030	          0.09199454	          0.17853731	          0.21640011	          0.13821076	          0.11783936	          0.05000032	          0.05958888	          0.09364091	          0.05000010	          0.05000056	          0.11976605	          0.05956118	          0.05963317	          0.45836070	          0.10066337	          0.17313904	          0.07095031	          0.06573965	          0.07201584	          0.05958960	          0.05518782	          0.05956094	          0.05000082	          0.05000009	          0.05000042	          0.05000060	          0.49693710	          0.32468393	          0.19888324	          0.27890632	          0.49258637	          0.10817160	          0.05000000	          0.15296330	          0.08451795	
          0.02294661	         -2.92892511	         -2.32864223	          6.77153214	          0.03499875	          0.91418967	         -0.00397221	        -17.58129852	         -1.66188811	          5.37259148	         27.89329876	          3.46700523	         -3.60417031	         -9.90380851	        -10.78309723	         -1.53155770	          5.41833451	          6.03565237	         -8.82227485	          1.64988375	         -0.23902359	         20.01477163	          0.69723862	         -1.38203780	          0.53933215	         -2.37369061	          5.62748155	        -13.45259670	         17.25472252	         -8.93251566	        -13.53930653	          7.36405311	         37.76189698	         15.66223256	         86.51662706	         86.51662706	          0.27306840	          0.06009788	          0.05000083	          0.25483443	          0.11345123	          0.07099724	          0.05000073	          0.05000011	          0.05000008	          0.05000017	          0.07097174	          0.09594741	          0.05000083	          0.05000056	          0.05000112	          0.05000037	          0.19695385	          0.06495463	          0.05000078	          0.05000157	          0.05000093	          0.05000073	          0.31307843	          0.59904162	          0.05000017	          0.05000063	          0.05000013	          0.23311256	          0.16262737	          0.16385830	          0.14029323	          0.18665788	          0.24736885	          0.20885861	          0.19996913	          0.16502403	          0.21533200	          0.05000007	          0.05212264	          0.12233394	          0.05000013	          0.05488316	          0.05000018	          0.06295211	          0.05251705	          0.05000001	          0.28471304	          0.24397969	          0.31233752	          0.21936934	          0.20493261	          0.21544728	          0.16644208	          0.05891329	          0.10466927	          0.07085178	          0.05000190	          0.07722707	          0.14987750	          0.18166239	          0.11602454	          0.14200856	          0.05000047	          0.05002353	          0.07860922	          0.18187211	          0.14672883	          0.13944776	          0.05000013	          0.05006054	          0.38478204	          0.08450443	          0.14534589	          0.05956098	          0.05518699	          0.06045571	          0.05002419	          0.05000002	          0.05000007	          0.05000001	          0.05000007	          0.05000018	          0.05000019	          0.56553332	          0.34388020	          0.21950761	          0.33421519	          0.51606410	          0.26336439	          0.07221758	          0.12840880	          0.07095065	
          0.03441991	         -2.92723968	         -2.42337454	          7.05427359	          0.05256222	          0.91352723	         -0.00375175	        -17.61028872	         -2.02144798	          5.12389214	         27.32243356	          3.68625890	         -3.33493292	        -11.48363166	        -11.63985154	         -2.36071424	          4.78966935	          6.77416013	         -9.14628006	          0.78319410	         -0.25364323	         21.57751411	          0.65924785	         -1.16667456	          0.74150380	         -2.42679176	          5.31019082	        -13.45897667	         17.52494170	         -9.90517421	        -13.52391722	          7.42160509	         38.89992315	         15.41844455	         86.51662706	         86.51662706	          0.27263704	          0.05045065	          0.05000003	          0.24420138	          0.09523943	          0.05960038	          0.05000093	          0.05000013	          0.05000010	          0.05000015	          0.05957908	          0.13899449	          0.06362704	          0.05000200	          0.05000124	          0.05000114	          0.16533784	          0.06401115	          0.05000048	          0.05000078	          0.05000048	          0.05000038	          0.26282132	          0.56993648	          0.05000006	          0.05000024	          0.05000010	          0.19569202	          0.17561956	          0.17248541	          0.17017768	          0.15669449	          0.20765979	          0.17533143	          0.16786897	          0.13853346	          0.18076570	          0.08162253	          0.09933752	          0.11005261	          0.05000563	          0.12723671	          0.05008489	          0.07767613	          0.05000000	          0.05000001	          0.34107511	          0.32343131	          0.38051030	          0.18575176	          0.19354440	          0.20896267	          0.13972386	          0.06394113	          0.08786722	          0.05947836	          0.05000031	          0.06483018	          0.12581836	          0.15250107	          0.15377524	          0.17367553	          0.05000018	          0.05000047	          0.06599085	          0.23877781	          0.19802791	          0.18907229	          0.05000004	          0.05000004	          0.32301466	          0.07093946	          0.12401097	          0.05000004	          0.07886700	          0.10337674	          0.08940058	          0.05000001	          0.05000003	          0.05000000	          0.05000001	          0.05000006	          0.05000007	          0.61018596	          0.33245941	          0.20124010	          0.52628285	          0.55696361	          0.25684302	          0.08622143	          0.10779590	          0.05956125	
